<?xml version="1.0" standalone="no"?>
<!DOCTYPE svg PUBLIC "-//W3C//DTD SVG 20010904//EN"
 "http://www.w3.org/TR/2001/REC-SVG-20010904/DTD/svg10.dtd">
<svg version="1.0" xmlns="http://www.w3.org/2000/svg"
 width="168.000000pt" height="168.000000pt" viewBox="0 0 168.000000 168.000000"
 preserveAspectRatio="xMidYMid meet">
<metadata>
Created by potrace 1.11, written by Peter Selinger 2001-2013
</metadata>
<g transform="translate(0.000000,168.000000) scale(0.100000,-0.100000)"
fill="#000000" stroke="none">
<path d="M464 1201 c-17 -10 -42 -38 -56 -63 -34 -56 -132 -207 -153 -233 -9
-11 -23 -35 -32 -53 -9 -19 -22 -36 -30 -39 -7 -3 -13 -11 -13 -18 0 -19 -20
-29 -51 -27 -20 2 -37 -8 -63 -35 -20 -21 -36 -44 -36 -51 0 -19 25 -25 49
-12 28 14 28 -2 -1 -40 -23 -32 -46 -38 -66 -18 -8 8 -11 -7 -9 -65 2 -61 5
-77 17 -77 17 0 88 106 108 159 13 37 39 71 55 71 14 0 80 33 95 47 13 12 27
17 45 14 4 0 7 3 7 8 0 5 26 14 58 20 69 14 74 15 87 23 29 18 37 -10 36 -118
-1 -132 7 -207 25 -231 12 -17 15 -16 39 10 14 15 30 27 35 27 10 0 24 37 23
65 0 11 -5 40 -12 64 -7 24 -15 75 -17 113 -4 65 -3 69 21 78 30 11 69 18 115
19 26 1 45 11 73 37 20 19 37 41 37 48 0 21 -42 27 -67 11 -12 -8 -44 -15 -71
-15 -27 0 -52 -3 -55 -6 -4 -4 -23 -7 -43 -8 -38 -1 -54 14 -52 50 1 27 -12
113 -25 164 -6 21 -13 63 -16 93 -2 12 -25 8 -57 -12z m-30 -164 c8 -44 17
-67 26 -67 5 0 7 -7 4 -15 -4 -9 -1 -15 7 -15 10 0 15 -14 16 -44 l1 -44 -56
-15 c-31 -9 -73 -19 -92 -22 -19 -4 -39 -11 -45 -15 -5 -5 -22 -6 -36 -3 l-26
5 24 46 c14 26 28 49 33 52 4 3 11 16 15 30 4 14 16 33 26 43 11 10 19 22 19
27 0 17 63 81 71 73 4 -4 10 -20 13 -36z"/>
<path d="M1543 1180 c-18 -11 -57 -40 -88 -65 -31 -25 -68 -53 -83 -62 -15
-10 -29 -20 -32 -24 -3 -3 -43 -33 -90 -66 -111 -79 -123 -92 -105 -117 13
-17 27 -19 126 -18 61 1 114 3 116 6 3 3 18 -1 34 -9 18 -10 30 -11 34 -5 4 7
12 7 23 0 9 -6 31 -19 47 -29 58 -34 64 -129 12 -184 -21 -23 -140 -71 -202
-82 -16 -3 -55 -7 -85 -7 -47 -2 -55 0 -52 15 1 9 3 25 5 34 3 27 -37 28 -73
2 -91 -68 26 -117 199 -84 191 37 316 110 340 202 14 52 3 83 -41 114 -18 13
-35 26 -38 29 -8 11 -92 31 -136 34 -22 2 -45 6 -51 9 -5 3 -44 7 -86 8 -52 1
-78 6 -81 15 -5 12 161 130 207 147 9 3 17 11 17 17 0 12 67 14 74 1 3 -4 1
-22 -4 -40 -7 -25 -5 -33 9 -40 13 -7 28 -1 62 26 39 31 44 40 47 80 4 55 -13
99 -41 107 -28 7 -27 8 -64 -14z"/>
<path d="M864 605 c-4 -8 -12 -15 -18 -15 -7 0 -18 -11 -24 -25 -10 -23 -8
-29 31 -68 32 -32 47 -40 56 -32 33 27 71 71 71 82 0 17 -71 73 -93 73 -10 0
-20 -7 -23 -15z"/>
</g>
</svg>
